<svg width="24" height="24" viewBox="0 0 24 24" fill="none" xmlns="http://www.w3.org/2000/svg">
<path d="M5.28693 12.4058L10.8963 12.4215C10.9484 12.4215 10.9796 12.4267 10.9901 12.4371C11.0005 12.4475 11.0057 12.4788 11.0057 12.5308L11.0213 18.1168C11.0213 18.4032 11.0838 18.6428 11.2088 18.8355C11.3338 19.0334 11.4979 19.1793 11.701 19.273C11.9041 19.3668 12.1203 19.4006 12.3494 19.3746C12.5786 19.3538 12.7947 19.2704 12.9979 19.1246C13.201 18.984 13.3651 18.773 13.4901 18.4918L19.2322 6.03865C19.3989 5.67407 19.4614 5.34594 19.4197 5.05428C19.3833 4.7574 19.2687 4.51782 19.076 4.33553C18.8833 4.14803 18.6359 4.03865 18.3338 4.0074C18.0317 3.97615 17.701 4.04386 17.3416 4.21053L4.84162 9.96834C4.57599 10.0881 4.37547 10.247 4.24006 10.4449C4.10464 10.6376 4.02652 10.8485 4.00568 11.0777C3.98485 11.3017 4.02131 11.5152 4.11506 11.7183C4.20881 11.9163 4.35204 12.0803 4.54474 12.2105C4.74266 12.3355 4.99006 12.4006 5.28693 12.4058Z" fill="white"/>
</svg>
